<svg width="170" height="24" viewBox="0 0 170 24" fill="none" xmlns="http://www.w3.org/2000/svg">
<path d="M7.712 22.312C6.77333 22.312 5.89867 22.1413 5.088 21.8C4.288 21.4693 3.584 21 2.976 20.392C2.368 19.784 1.89333 19.08 1.552 18.28C1.22133 17.4693 1.056 16.6 1.056 15.672C1.056 14.744 1.22667 13.88 1.568 13.08C1.90933 12.28 2.37867 11.5813 2.976 10.984C3.584 10.3867 4.29333 9.92267 5.104 9.592C5.91467 9.25067 6.784 9.08 7.712 9.08C8.672 9.08 9.55733 9.26133 10.368 9.624C11.1787 9.976 11.8773 10.4613 12.464 11.08C13.0613 11.688 13.52 12.3813 13.84 13.16C14.1707 13.9387 14.336 14.7547 14.336 15.608C14.336 16.28 14.2293 16.872 14.016 17.384C13.8133 17.8853 13.5147 18.28 13.12 18.568C12.7253 18.856 12.2507 19 11.696 19C11.3653 19 11.0507 18.9413 10.752 18.824C10.4533 18.696 10.1973 18.52 9.984 18.296C9.78133 18.0613 9.64267 17.784 9.568 17.464L9.824 17.672C9.65333 17.96 9.44 18.2053 9.184 18.408C8.93867 18.6 8.66133 18.7493 8.352 18.856C8.04267 18.952 7.70667 19 7.344 19C6.72533 19 6.16533 18.8507 5.664 18.552C5.17333 18.2533 4.784 17.848 4.496 17.336C4.208 16.824 4.064 16.2427 4.064 15.592C4.064 14.9413 4.208 14.36 4.496 13.848C4.784 13.336 5.17333 12.9307 5.664 12.632C6.16533 12.3227 6.72533 12.168 7.344 12.168C7.86667 12.168 8.34133 12.2747 8.768 12.488C9.20533 12.7013 9.552 13 9.808 13.384L9.696 13.576V12.328H10.736V16.744C10.736 17.1387 10.8213 17.4267 10.992 17.608C11.1733 17.7893 11.4133 17.88 11.712 17.88C12.16 17.88 12.5067 17.6933 12.752 17.32C13.008 16.9467 13.136 16.3867 13.136 15.64C13.136 14.872 13.0027 14.1573 12.736 13.496C12.4693 12.8347 12.096 12.2587 11.616 11.768C11.136 11.2773 10.5653 10.8933 9.904 10.616C9.24267 10.3387 8.512 10.2 7.712 10.2C6.93333 10.2 6.208 10.3387 5.536 10.616C4.87467 10.8827 4.29867 11.2613 3.808 11.752C3.31733 12.2427 2.93333 12.8187 2.656 13.48C2.38933 14.1413 2.256 14.8667 2.256 15.656C2.256 16.424 2.384 17.144 2.64 17.816C2.90667 18.4773 3.28 19.0587 3.76 19.56C4.25067 20.072 4.832 20.472 5.504 20.76C6.176 21.048 6.92267 21.192 7.744 21.192C8.224 21.192 8.688 21.1387 9.136 21.032C9.584 20.936 9.98933 20.7867 10.352 20.584L10.864 21.544C9.95733 22.056 8.90667 22.312 7.712 22.312ZM7.392 17.88C7.808 17.88 8.176 17.7787 8.496 17.576C8.816 17.3733 9.06667 17.1013 9.248 16.76C9.44 16.408 9.536 16.0133 9.536 15.576C9.536 14.9147 9.33333 14.376 8.928 13.96C8.52267 13.5333 8.01067 13.32 7.392 13.32C6.98667 13.32 6.61867 13.4213 6.288 13.624C5.968 13.816 5.71733 14.0827 5.536 14.424C5.35467 14.7653 5.264 15.1547 5.264 15.592C5.264 16.0187 5.35467 16.408 5.536 16.76C5.728 17.1013 5.984 17.3733 6.304 17.576C6.624 17.7787 6.98667 17.88 7.392 17.88ZM20.1614 19.192C19.3187 19.192 18.5774 18.9947 17.9374 18.6C17.2974 18.2053 16.796 17.672 16.4334 17C16.0707 16.3173 15.8894 15.5493 15.8894 14.696C15.8894 13.8427 16.0707 13.08 16.4334 12.408C16.796 11.736 17.2974 11.208 17.9374 10.824C18.5774 10.4293 19.3187 10.232 20.1614 10.232C20.6947 10.232 21.196 10.328 21.6654 10.52C22.1347 10.712 22.5507 10.9733 22.9134 11.304C23.276 11.624 23.548 11.9973 23.7294 12.424L22.6414 12.984C22.428 12.5253 22.1027 12.152 21.6654 11.864C21.228 11.576 20.7267 11.432 20.1614 11.432C19.596 11.432 19.084 11.576 18.6254 11.864C18.1774 12.1413 17.82 12.5307 17.5534 13.032C17.2974 13.5227 17.1694 14.0827 17.1694 14.712C17.1694 15.3307 17.2974 15.8907 17.5534 16.392C17.82 16.8827 18.1774 17.272 18.6254 17.56C19.084 17.848 19.596 17.992 20.1614 17.992C20.7267 17.992 21.2227 17.848 21.6494 17.56C22.0867 17.272 22.4174 16.888 22.6414 16.408L23.7294 17C23.548 17.416 23.276 17.7893 22.9134 18.12C22.5507 18.4507 22.1347 18.712 21.6654 18.904C21.196 19.096 20.6947 19.192 20.1614 19.192ZM28.3089 19.192C27.7649 19.192 27.2795 19.0907 26.8529 18.888C26.4262 18.6747 26.0902 18.3867 25.8449 18.024C25.5995 17.6613 25.4769 17.2453 25.4769 16.776C25.4769 16.328 25.5729 15.9227 25.7649 15.56C25.9569 15.1867 26.2555 14.872 26.6609 14.616C27.0662 14.36 27.5835 14.1787 28.2129 14.072L31.5729 13.512V14.6L28.5009 15.112C27.8822 15.2187 27.4342 15.416 27.1569 15.704C26.8902 15.992 26.7569 16.3333 26.7569 16.728C26.7569 17.112 26.9062 17.4373 27.2049 17.704C27.5142 17.9707 27.9089 18.104 28.3889 18.104C28.9755 18.104 29.4875 17.9813 29.9249 17.736C30.3622 17.48 30.7035 17.1387 30.9489 16.712C31.1942 16.2853 31.3169 15.8107 31.3169 15.288V13.112C31.3169 12.6 31.1302 12.184 30.7569 11.864C30.3835 11.544 29.8982 11.384 29.3009 11.384C28.7782 11.384 28.3195 11.5173 27.9249 11.784C27.5302 12.04 27.2369 12.376 27.0449 12.792L25.9569 12.2C26.1169 11.8373 26.3675 11.5067 26.7089 11.208C27.0609 10.9093 27.4609 10.6747 27.9089 10.504C28.3569 10.3227 28.8209 10.232 29.3009 10.232C29.9302 10.232 30.4849 10.3547 30.9649 10.6C31.4555 10.8453 31.8342 11.1867 32.1009 11.624C32.3782 12.0507 32.5169 12.5467 32.5169 13.112V19H31.3169V17.288L31.4929 17.464C31.3435 17.784 31.1089 18.0773 30.7889 18.344C30.4795 18.6 30.1115 18.808 29.6849 18.968C29.2689 19.1173 28.8102 19.192 28.3089 19.192ZM35.1351 19V10.424H36.3351V11.832L36.1751 11.624C36.3778 11.2187 36.6818 10.8987 37.0871 10.664C37.5031 10.4293 38.0045 10.312 38.5911 10.312H39.1351V11.512H38.3831C37.7645 11.512 37.2685 11.704 36.8951 12.088C36.5218 12.472 36.3351 13.016 36.3351 13.72V19H35.1351ZM44.5954 19.192C43.7954 19.192 43.07 19 42.4194 18.616C41.7794 18.2213 41.2727 17.6827 40.8994 17C40.526 16.3173 40.3394 15.544 40.3394 14.68C40.3394 13.816 40.5207 13.0533 40.8834 12.392C41.246 11.72 41.7367 11.192 42.3554 10.808C42.9847 10.424 43.6887 10.232 44.4674 10.232C45.086 10.232 45.6354 10.3493 46.1154 10.584C46.606 10.808 47.022 11.1173 47.3634 11.512C47.7047 11.896 47.966 12.3333 48.1474 12.824C48.3287 13.304 48.4194 13.8 48.4194 14.312C48.4194 14.4187 48.414 14.5413 48.4034 14.68C48.3927 14.808 48.3767 14.9413 48.3554 15.08H41.1074V13.96H47.6674L47.0914 14.44C47.1874 13.8533 47.118 13.3307 46.8834 12.872C46.6594 12.4027 46.334 12.0347 45.9074 11.768C45.4807 11.4907 45.0007 11.352 44.4674 11.352C43.934 11.352 43.438 11.4907 42.9794 11.768C42.5314 12.0453 42.1794 12.4347 41.9234 12.936C41.6674 13.4267 41.566 14.0133 41.6194 14.696C41.566 15.3787 41.6727 15.976 41.9394 16.488C42.2167 16.9893 42.59 17.3787 43.0594 17.656C43.5394 17.9333 44.0514 18.072 44.5954 18.072C45.2247 18.072 45.7527 17.9227 46.1794 17.624C46.606 17.3253 46.9527 16.952 47.2194 16.504L48.2434 17.048C48.0727 17.432 47.8114 17.7893 47.4594 18.12C47.1074 18.44 46.686 18.7013 46.1954 18.904C45.7154 19.096 45.182 19.192 44.5954 19.192ZM50.6851 22.2V10.424H51.8851V12.344L51.6931 12.008C52.0345 11.464 52.4878 11.032 53.0531 10.712C53.6291 10.392 54.2851 10.232 55.0211 10.232C55.8318 10.232 56.5518 10.4293 57.1811 10.824C57.8211 11.208 58.3225 11.736 58.6851 12.408C59.0585 13.08 59.2451 13.848 59.2451 14.712C59.2451 15.5653 59.0585 16.3333 58.6851 17.016C58.3225 17.688 57.8211 18.2213 57.1811 18.616C56.5518 19 55.8318 19.192 55.0211 19.192C54.2851 19.192 53.6185 19.0267 53.0211 18.696C52.4345 18.3547 51.9918 17.8747 51.6931 17.256L51.8851 17.08V22.2H50.6851ZM54.9571 17.992C55.5331 17.992 56.0451 17.848 56.4931 17.56C56.9518 17.272 57.3091 16.8827 57.5651 16.392C57.8318 15.8907 57.9651 15.3307 57.9651 14.712C57.9651 14.0827 57.8318 13.5227 57.5651 13.032C57.3091 12.5413 56.9518 12.152 56.4931 11.864C56.0451 11.576 55.5331 11.432 54.9571 11.432C54.3811 11.432 53.8585 11.576 53.3891 11.864C52.9305 12.152 52.5625 12.5467 52.2851 13.048C52.0185 13.5387 51.8851 14.0933 51.8851 14.712C51.8851 15.3307 52.0185 15.8907 52.2851 16.392C52.5625 16.8827 52.9305 17.272 53.3891 17.56C53.8585 17.848 54.3811 17.992 54.9571 17.992ZM64.547 19.192C63.9497 19.192 63.4057 19.0533 62.915 18.776C62.4243 18.488 62.035 18.0933 61.747 17.592C61.4697 17.08 61.331 16.4933 61.331 15.832V10.424H62.531V15.688C62.531 16.1467 62.6217 16.552 62.803 16.904C62.995 17.2453 63.2563 17.512 63.587 17.704C63.9283 17.896 64.3177 17.992 64.755 17.992C65.1923 17.992 65.5817 17.896 65.923 17.704C66.2643 17.5013 66.531 17.2187 66.723 16.856C66.915 16.4827 67.011 16.04 67.011 15.528V10.424H68.211V19H67.011V17.336L67.283 17.4C67.0803 17.9547 66.7337 18.392 66.243 18.712C65.7523 19.032 65.187 19.192 64.547 19.192ZM70.8289 19V6.888H72.0289V19H70.8289ZM77.6111 19.192C76.7898 19.192 76.0698 18.984 75.4511 18.568C74.8325 18.152 74.3845 17.5867 74.1071 16.872L75.1151 16.392C75.3605 16.9147 75.7018 17.3307 76.1391 17.64C76.5871 17.9493 77.0778 18.104 77.6111 18.104C78.1231 18.104 78.5551 17.9813 78.9071 17.736C79.2591 17.48 79.4351 17.1493 79.4351 16.744C79.4351 16.4453 79.3498 16.2107 79.1791 16.04C79.0085 15.8587 78.8111 15.72 78.5871 15.624C78.3631 15.528 78.1658 15.4587 77.9951 15.416L76.7631 15.064C75.9738 14.84 75.4031 14.5253 75.0511 14.12C74.6991 13.7147 74.5231 13.2453 74.5231 12.712C74.5231 12.2107 74.6511 11.7733 74.9071 11.4C75.1631 11.0267 75.5098 10.7387 75.9471 10.536C76.3845 10.3333 76.8698 10.232 77.4031 10.232C78.1285 10.232 78.7845 10.424 79.3711 10.808C79.9685 11.1813 80.3898 11.704 80.6351 12.376L79.6111 12.856C79.3978 12.376 79.0885 12.0027 78.6831 11.736C78.2885 11.4587 77.8458 11.32 77.3551 11.32C76.8751 11.32 76.4911 11.4427 76.2031 11.688C75.9151 11.9333 75.7711 12.2427 75.7711 12.616C75.7711 12.904 75.8458 13.1333 75.9951 13.304C76.1445 13.4747 76.3151 13.6027 76.5071 13.688C76.7098 13.7733 76.8858 13.8373 77.0351 13.88L78.4591 14.296C79.1525 14.4987 79.6911 14.8133 80.0751 15.24C80.4698 15.6667 80.6671 16.168 80.6671 16.744C80.6671 17.2133 80.5338 17.6347 80.2671 18.008C80.0111 18.3813 79.6538 18.6747 79.1951 18.888C78.7365 19.0907 78.2085 19.192 77.6111 19.192ZM86.8297 19.192C86.0297 19.192 85.3044 19 84.6537 18.616C84.0137 18.2213 83.5071 17.6827 83.1337 17C82.7604 16.3173 82.5737 15.544 82.5737 14.68C82.5737 13.816 82.7551 13.0533 83.1177 12.392C83.4804 11.72 83.9711 11.192 84.5897 10.808C85.2191 10.424 85.9231 10.232 86.7017 10.232C87.3204 10.232 87.8697 10.3493 88.3497 10.584C88.8404 10.808 89.2564 11.1173 89.5977 11.512C89.9391 11.896 90.2004 12.3333 90.3817 12.824C90.5631 13.304 90.6537 13.8 90.6537 14.312C90.6537 14.4187 90.6484 14.5413 90.6377 14.68C90.6271 14.808 90.6111 14.9413 90.5897 15.08H83.3417V13.96H89.9017L89.3257 14.44C89.4217 13.8533 89.3524 13.3307 89.1177 12.872C88.8937 12.4027 88.5684 12.0347 88.1417 11.768C87.7151 11.4907 87.2351 11.352 86.7017 11.352C86.1684 11.352 85.6724 11.4907 85.2137 11.768C84.7657 12.0453 84.4137 12.4347 84.1577 12.936C83.9017 13.4267 83.8004 14.0133 83.8537 14.696C83.8004 15.3787 83.9071 15.976 84.1737 16.488C84.4511 16.9893 84.8244 17.3787 85.2937 17.656C85.7737 17.9333 86.2857 18.072 86.8297 18.072C87.4591 18.072 87.9871 17.9227 88.4137 17.624C88.8404 17.3253 89.1871 16.952 89.4537 16.504L90.4777 17.048C90.3071 17.432 90.0457 17.7893 89.6937 18.12C89.3417 18.44 88.9204 18.7013 88.4297 18.904C87.9497 19.096 87.4164 19.192 86.8297 19.192ZM99.7083 19.192C98.8656 19.192 98.1243 18.9947 97.4843 18.6C96.8443 18.2053 96.3429 17.672 95.9803 17C95.6176 16.3173 95.4363 15.5493 95.4363 14.696C95.4363 13.8427 95.6176 13.08 95.9803 12.408C96.3429 11.736 96.8443 11.208 97.4843 10.824C98.1243 10.4293 98.8656 10.232 99.7083 10.232C100.242 10.232 100.743 10.328 101.212 10.52C101.682 10.712 102.098 10.9733 102.46 11.304C102.823 11.624 103.095 11.9973 103.276 12.424L102.188 12.984C101.975 12.5253 101.65 12.152 101.212 11.864C100.775 11.576 100.274 11.432 99.7083 11.432C99.1429 11.432 98.6309 11.576 98.1723 11.864C97.7243 12.1413 97.3669 12.5307 97.1003 13.032C96.8443 13.5227 96.7163 14.0827 96.7163 14.712C96.7163 15.3307 96.8443 15.8907 97.1003 16.392C97.3669 16.8827 97.7243 17.272 98.1723 17.56C98.6309 17.848 99.1429 17.992 99.7083 17.992C100.274 17.992 100.77 17.848 101.196 17.56C101.634 17.272 101.964 16.888 102.188 16.408L103.276 17C103.095 17.416 102.823 17.7893 102.46 18.12C102.098 18.4507 101.682 18.712 101.212 18.904C100.743 19.096 100.242 19.192 99.7083 19.192ZM109.548 19.192C108.737 19.192 108.001 19 107.34 18.616C106.679 18.2213 106.151 17.688 105.756 17.016C105.372 16.3333 105.18 15.56 105.18 14.696C105.18 13.8427 105.372 13.08 105.756 12.408C106.14 11.736 106.657 11.208 107.308 10.824C107.969 10.4293 108.716 10.232 109.548 10.232C110.38 10.232 111.121 10.424 111.772 10.808C112.433 11.192 112.951 11.72 113.324 12.392C113.708 13.064 113.9 13.832 113.9 14.696C113.9 15.5707 113.703 16.3493 113.308 17.032C112.913 17.704 112.385 18.232 111.724 18.616C111.073 19 110.348 19.192 109.548 19.192ZM109.548 17.992C110.124 17.992 110.641 17.848 111.1 17.56C111.569 17.272 111.937 16.8773 112.204 16.376C112.481 15.8747 112.62 15.3147 112.62 14.696C112.62 14.0773 112.481 13.5227 112.204 13.032C111.937 12.5413 111.569 12.152 111.1 11.864C110.641 11.576 110.124 11.432 109.548 11.432C108.972 11.432 108.449 11.576 107.98 11.864C107.521 12.152 107.153 12.5413 106.876 13.032C106.599 13.5227 106.46 14.0773 106.46 14.696C106.46 15.3147 106.599 15.8747 106.876 16.376C107.153 16.8773 107.521 17.272 107.98 17.56C108.449 17.848 108.972 17.992 109.548 17.992ZM116.166 22.2V10.424H117.366V12.344L117.174 12.008C117.516 11.464 117.969 11.032 118.534 10.712C119.11 10.392 119.766 10.232 120.502 10.232C121.313 10.232 122.033 10.4293 122.662 10.824C123.302 11.208 123.804 11.736 124.166 12.408C124.54 13.08 124.726 13.848 124.726 14.712C124.726 15.5653 124.54 16.3333 124.166 17.016C123.804 17.688 123.302 18.2213 122.662 18.616C122.033 19 121.313 19.192 120.502 19.192C119.766 19.192 119.1 19.0267 118.502 18.696C117.916 18.3547 117.473 17.8747 117.174 17.256L117.366 17.08V22.2H116.166ZM120.438 17.992C121.014 17.992 121.526 17.848 121.974 17.56C122.433 17.272 122.79 16.8827 123.046 16.392C123.313 15.8907 123.446 15.3307 123.446 14.712C123.446 14.0827 123.313 13.5227 123.046 13.032C122.79 12.5413 122.433 12.152 121.974 11.864C121.526 11.576 121.014 11.432 120.438 11.432C119.862 11.432 119.34 11.576 118.87 11.864C118.412 12.152 118.044 12.5467 117.766 13.048C117.5 13.5387 117.366 14.0933 117.366 14.712C117.366 15.3307 117.5 15.8907 117.766 16.392C118.044 16.8827 118.412 17.272 118.87 17.56C119.34 17.848 119.862 17.992 120.438 17.992ZM127.008 22.52C126.837 22.52 126.661 22.504 126.48 22.472C126.309 22.4507 126.139 22.408 125.968 22.344V21.224C126.075 21.2347 126.208 21.2507 126.368 21.272C126.539 21.304 126.709 21.32 126.88 21.32C127.403 21.32 127.803 21.208 128.08 20.984C128.357 20.7707 128.629 20.3547 128.896 19.736L129.44 18.456L129.408 19.512L125.776 10.424H127.072L130.048 17.928H129.712L132.672 10.424H134L130.08 20.088C129.909 20.504 129.691 20.8987 129.424 21.272C129.168 21.6453 128.843 21.944 128.448 22.168C128.053 22.4027 127.573 22.52 127.008 22.52ZM135.56 19V10.424H136.76V11.832L136.6 11.624C136.803 11.2187 137.107 10.8987 137.512 10.664C137.928 10.4293 138.429 10.312 139.016 10.312H139.56V11.512H138.808C138.189 11.512 137.693 11.704 137.32 12.088C136.947 12.472 136.76 13.016 136.76 13.72V19H135.56ZM141.116 19V10.424H142.316V19H141.116ZM141.116 8.84V7.08H142.316V8.84H141.116ZM148.987 22.52C148.4 22.52 147.856 22.4293 147.355 22.248C146.864 22.0667 146.437 21.816 146.075 21.496C145.723 21.1867 145.451 20.824 145.259 20.408L146.363 19.816C146.533 20.2213 146.837 20.5733 147.275 20.872C147.712 21.1707 148.272 21.32 148.955 21.32C149.477 21.32 149.957 21.2187 150.395 21.016C150.832 20.8133 151.184 20.5147 151.451 20.12C151.717 19.7253 151.851 19.24 151.851 18.664V16.76L152.043 16.936C151.744 17.5547 151.301 18.0347 150.715 18.376C150.128 18.7067 149.488 18.872 148.795 18.872C147.995 18.872 147.275 18.68 146.635 18.296C145.995 17.912 145.488 17.3947 145.115 16.744C144.752 16.0827 144.571 15.352 144.571 14.552C144.571 13.7413 144.752 13.0107 145.115 12.36C145.488 11.7093 145.989 11.192 146.619 10.808C147.259 10.424 147.984 10.232 148.795 10.232C149.488 10.232 150.117 10.392 150.683 10.712C151.259 11.032 151.712 11.464 152.043 12.008L151.851 12.344V10.424H153.051V18.664C153.051 19.4 152.875 20.056 152.523 20.632C152.181 21.2187 151.701 21.6773 151.083 22.008C150.475 22.3493 149.776 22.52 148.987 22.52ZM148.859 17.672C149.413 17.672 149.915 17.5333 150.363 17.256C150.811 16.968 151.168 16.5893 151.435 16.12C151.712 15.64 151.851 15.1173 151.851 14.552C151.851 13.9867 151.712 13.4693 151.435 13C151.168 12.52 150.811 12.1413 150.363 11.864C149.915 11.576 149.413 11.432 148.859 11.432C148.293 11.432 147.781 11.576 147.323 11.864C146.864 12.1413 146.501 12.5147 146.235 12.984C145.979 13.4533 145.851 13.976 145.851 14.552C145.851 15.1173 145.979 15.64 146.235 16.12C146.501 16.5893 146.859 16.968 147.307 17.256C147.765 17.5333 148.283 17.672 148.859 17.672ZM155.666 19V6.888H156.866V12.088L156.594 12.024C156.808 11.4693 157.154 11.032 157.634 10.712C158.125 10.392 158.69 10.232 159.33 10.232C159.938 10.232 160.482 10.3707 160.962 10.648C161.453 10.9253 161.837 11.3093 162.114 11.8C162.402 12.28 162.546 12.824 162.546 13.432V19H161.346V13.896C161.346 13.3733 161.25 12.9307 161.058 12.568C160.866 12.2053 160.6 11.928 160.258 11.736C159.928 11.5333 159.549 11.432 159.122 11.432C158.696 11.432 158.312 11.5333 157.97 11.736C157.629 11.928 157.357 12.2107 157.154 12.584C156.962 12.9467 156.866 13.384 156.866 13.896V19H155.666ZM168.268 19.096C167.5 19.096 166.908 18.872 166.492 18.424C166.076 17.976 165.868 17.336 165.868 16.504V11.624H164.284V10.424H164.684C165.047 10.424 165.335 10.3067 165.548 10.072C165.762 9.82667 165.868 9.52267 165.868 9.16V8.44H167.068V10.424H168.956V11.624H167.068V16.504C167.068 16.792 167.111 17.048 167.196 17.272C167.282 17.4853 167.426 17.656 167.628 17.784C167.842 17.912 168.124 17.976 168.476 17.976C168.562 17.976 168.663 17.9707 168.78 17.96C168.898 17.9493 168.999 17.9387 169.084 17.928V19C168.956 19.032 168.812 19.0533 168.652 19.064C168.492 19.0853 168.364 19.096 168.268 19.096Z" fill="#76828D"/>
</svg>
